PathFileType   4   (X/Y/Z)																																																																																																																							
DataRate	CameraRate	NumFrames	NumMarkers	Units	OrigDataRate	OrigDataStartFrame	OrigNumFrames																																																																																																																
120	120	8	37	mm	120	110	125																																																																																																																
Frame#	Time	Sternum	R.Acromium	L.Acromium	Top.Head	R.ASIS	L.ASIS	V.Sacral	R.Thigh.Upper	R.Thigh.Front	R.Thigh.Rear	R.Knee.Lat	R.Knee.Med	R.Shank.Upper	R.Shank.Front	R.Shank.Rear	R.Ankle.Lat	R.Ankle.Med	R.Heel	R.Midfoot.Sup	R.Midfoot.Lat	R.Toe.Lat	R.Toe.Med	R.Toe.Tip	L.Thigh.Upper	L.Thigh.Front	L.Thigh.Rear	L.Knee.Lat	L.Knee.Med	L.Shank.Upper	L.Shank.Front	L.Shank.Rear	L.Ankle.Lat	L.Ankle.Med	L.Heel	L.Midfoot.Sup	L.Midfoot.Lat	L.Toe.Lat	L.Toe.Med	L.Toe.Tip																																																																															
 	 	X1	Y1	Z1	X2	Y2	Z2	X3	Y3	Z3	X4	Y4	Z4	X5	Y5	Z5	X6	Y6	Z6	X7	Y7	Z7	X8	Y8	Z8	X9	Y9	Z9	X10	Y10	Z10	X11	Y11	Z11	X12	Y12	Z12	X13	Y13	Z13	X14	Y14	Z14	X15	Y15	Z15	X16	Y16	Z16	X17	Y17	Z17	X18	Y18	Z18	X19	Y19	Z19	X20	Y20	Z20	X21	Y21	Z21	X22	Y22	Z22	X23	Y23	Z23	X24	Y24	Z24	X25	Y25	Z25	X26	Y26	Z26	X27	Y27	Z27	X28	Y28	Z28	X29	Y29	Z29	X30	Y30	Z30	X31	Y31	Z31	X32	Y32	Z32	X33	Y33	Z33	X34	Y34	Z34	X35	Y35	Z35	X36	Y36	Z36	X37	Y37	Z37							
																																																																																																																							
	110	1.03333	1055.08118	-0.001002095	1245.898295	971.1344011	-161.9453511	1300.612071	973.8820276	165.1979949	1300.729763	1042.111179	-10.08809499	1537.788796	1119.948122	-117.7896216	857.7142554	1124.957871	119.399185	849.8466814	944.3454695	-5.611229398	876.052254	1039.024663	-173.4115572	523.0257684	1088.935693	-67.95180237	444.4552953	1002.649039	-162.9734513	393.7375617	941.9272519	-142.5943975	308.8935309	936.58264	-8.355853302	291.1104508	896.3436887	-154.6508593	288.2955739	959.9443934	-93.81404015	221.0876332	877.9971965	-165.0122006	193.2058438	763.6052572	-136.9768135	-104.495248	777.6336986	-37.22329306	-92.58536248	688.7097289	-79.10633289	-118.6457483	840.2704724	-41.71858376	-134.2975649	831.0018407	-155.3841374	-153.868485	919.695175	-165.0174344	-196.0275257	924.6312217	-50.15543807	-182.8557507	988.2020181	-83.79364801	-194.0501765	1163.362384	178.8034865	583.1284828	1261.400624	95.03600439	579.1886411	1205.713306	161.7547942	469.9595502	1241.620687	144.5366564	327.6257975	1242.501522	15.87918741	328.9230425	1243.316642	162.4477689	300.8490585	1307.118769	100.5194763	262.3875818	1239.378667	174.5177999	249.0883053	1362.60033	136.4325857	-79.75088539	1359.129716	34.31683281	-53.55585052	1288.516862	76.11439987	-121.7445405	1463.084834	48.15109198	-68.23872547	1444.380613	152.6198727	-73.66394462	1515.594758	163.716336	-78.64322514	1532.938483	55.50675189	-73.6349391	1582.744749	82.30973808	-58.27310294
	111	1.04167	1064.289843	-0.001002095	1244.939083	980.3123505	-161.9453511	1299.605707	983.0599104	165.1979949	1299.724941	1051.155919	-10.08809499	1536.822254	1129.235246	-117.7896216	856.4931001	1134.227671	119.399185	848.6145214	953.6733718	-5.611229398	875.2174623	1046.253947	-173.4115572	521.9308782	1095.57495	-67.95180237	442.9886918	1008.910756	-162.9734513	392.9188149	947.5550472	-142.5943975	308.5320743	942.0773599	-8.355853302	290.7895335	901.4985036	-154.6508593	288.5986729	964.0680942	-93.81404015	220.4297412	881.7056994	-165.0122006	193.7994353	762.7923433	-136.9768135	-102.124659	777.0005727	-37.22329306	-90.4298414	687.7262658	-79.10633289	-115.3780494	839.0850385	-41.71858376	-132.8754854	829.5786214	-155.3841374	-152.3320134	917.7516593	-165.0174344	-195.5686604	922.8478389	-50.15543807	-182.4580095	986.2775106	-83.79364801	-194.4262201	1171.727445	178.8034865	581.5868612	1269.749693	95.03600439	577.2673845	1213.63979	161.7547942	468.2547684	1248.995697	144.5366564	325.7830275	1249.88155	15.87918741	327.0768515	1252.3295	162.4477689	299.8055621	1317.024133	100.5194763	262.8650554	1249.617804	174.5177999	247.9660991	1380.588556	136.4325857	-77.86430711	1376.498878	34.31683281	-51.75876071	1307.175204	76.11439987	-121.0051108	1480.912795	48.15109198	-64.86155695	1462.292885	152.6198727	-70.56943396	1533.574274	163.716336	-74.46958731	1550.840159	55.50675189	-69.19920062	1600.408053	82.30973808	-53.08479802
	112	1.05	1073.557072	-0.001002095	1244.03497	989.5391058	-161.9453511	1298.639368	992.2865766	165.1979949	1298.760638	1060.206926	-10.08809499	1535.908331	1138.642546	-117.7896216	855.3230805	1143.617868	119.399185	847.43369	963.1217039	-5.611229398	874.4282527	1053.707157	-173.4115572	520.9016986	1102.467483	-67.95180237	441.6119719	1015.450636	-162.9734513	392.1575145	953.4984449	-142.5943975	308.2077017	947.8951592	-8.355853302	290.504425	906.9537816	-154.6508593	288.9651825	968.4455609	-93.81404015	219.822446	885.6752777	-165.0122006	194.4883291	762.1312194	-136.9768135	-99.53262511	776.5212809	-37.22329306	-88.06228636	686.8897047	-79.10633289	-111.7795675	837.9975626	-41.71858376	-131.3257598	828.2284525	-155.3841374	-150.6517252	915.8077004	-165.0174344	-195.0788295	921.081014	-50.15543807	-182.0384163	984.3427399	-83.79364801	-194.8647705	1180.189691	178.8034865	580.0798577	1278.193882	95.03600439	575.3684496	1221.648514	161.7547942	466.5810742	1256.434431	144.5366564	323.9690931	1257.32545	15.87918741	325.2593645	1261.169429	162.4477689	298.7170245	1326.580068	100.5194763	263.0596988	1259.480709	174.5177999	246.8341618	1396.852452	136.4325857	-76.34968004	1392.248681	34.31683281	-50.32987395	1323.998261	76.11439987	-120.4160783	1497.031933	48.15109198	-62.13917522	1478.48366	152.6198727	-68.07571223	1549.80764	163.716336	-71.09855225	1567.007373	55.50675189	-65.61613184	1616.37325	82.30973808	-48.89308515
	113	1.05833	1082.880325	-0.001002095	1243.194067	998.8112684	-161.9453511	1297.719773	1001.558625	165.1979949	1297.843615	1069.256896	-10.08809499	1535.0548	1148.175673	-117.7896216	854.2172995	1153.134522	119.399185	846.3175446	972.695079	-5.611229398	873.6886778	1061.40628	-173.4115572	519.9446652	1109.6395	-67.95180237	440.3331923	1022.296472	-162.9734513	391.4571201	959.788695	-142.5943975	307.920165	954.0680836	-8.355853302	290.2544519	912.7403624	-154.6508593	289.396562	973.1047889	-93.81404015	219.2674459	889.9352385	-165.0122006	195.2765489	761.6477051	-136.9768135	-96.70592427	776.2215649	-37.22329306	-85.47003746	686.2280426	-79.10633289	-107.8187926	837.0228781	-41.71858376	-129.6489535	826.9624915	-155.3841374	-148.8249038	913.8595495	-165.0174344	-194.5719646	919.3295562	-50.15543807	-181.6128273	982.3899832	-83.79364801	-195.3948398	1188.758949	178.8034865	578.6160965	1286.742873	95.03600439	573.5004891	1229.749269	161.7547942	464.9472727	1263.946656	144.5366564	322.1930227	1264.84299	15.87918741	323.479608	1269.839283	162.4477689	297.5695061	1335.802232	100.5194763	262.9445727	1268.966158	174.5177999	245.6665113	1411.400068	136.4325857	-75.31849275	1406.387941	34.31683281	-49.37425269	1338.978764	76.11439987	-120.0820747	1511.463218	48.15109198	-60.19917005	1492.970932	152.6198727	-66.30787515	1564.31993	163.716336	-68.66755739	1581.467956	55.50675189	-63.02548529	1630.676243	82.30973808	-45.84425636
	114	1.06667	1092.258126	-0.001002095	1242.423846	1008.12695	-161.9453511	1296.853657	1010.874163	165.1979949	1296.980631	1078.301911	-10.08809499	1534.268855	1157.839445	-117.7896216	853.1901152	1162.782973	119.399185	845.2807641	982.3969187	-5.611229398	873.0015661	1069.375049	-173.4115572	519.0659709	1117.119444	-67.95180237	439.1603838	1029.478507	-162.9734513	390.820533	966.4599271	-142.5943975	307.6682413	960.6311545	-8.355853302	290.0379202	918.8918312	-154.6508593	289.8934933	978.0761736	-93.81404015	218.765647	894.5174116	-165.0122006	196.1676259	761.3695843	-136.9768135	-93.63077279	776.1291297	-37.22329306	-82.63994211	685.7728129	-79.10633289	-103.4629595	836.1761386	-41.71858376	-127.8448781	825.7923012	-155.3841374	-146.8476244	911.9018014	-165.0174344	-194.0604007	917.5905873	-50.15543807	-181.195801	980.4084564	-83.79364801	-196.0442573	1197.441673	178.8034865	577.2015717	1295.402862	95.03600439	571.667644	1237.946283	161.7547942	463.3587655	1271.533833	144.5366564	320.4598025	1272.435651	15.87918741	321.7425489	1278.339707	162.4477689	296.3520528	1344.703744	100.5194763	262.5022187	1278.07466	174.5177999	244.4423912	1424.258978	136.4325857	-74.85204464	1418.943271	34.31683281	-48.96829941	1352.129446	76.11439987	-120.0747281	1524.246041	48.15109198	-59.14257635	1505.791298	152.6198727	-65.36377838	1577.153342	163.716336	-67.28893162	1594.266692	55.50675189	-61.5425399	1643.36944	82.30973808	-44.06197187
	115	1.075	1101.690181	-0.001002095	1241.730884	1017.485943	-161.9453511	1296.047596	1020.232983	165.1979949	1296.178262	1087.341817	-10.08809499	1533.556876	1167.637487	-117.7896216	852.2565582	1172.567459	119.399185	844.3387502	992.229157	-5.611229398	872.3685243	1077.637634	-173.4115572	518.271295	1124.936467	-67.95180237	438.10116	1037.027787	-162.9734513	390.2499426	973.5472871	-142.5943975	307.4497545	967.6204594	-8.355853302	289.8521545	925.4427664	-154.6508593	290.4558394	983.3908817	-93.81404015	218.3172724	899.4546002	-165.0122006	197.1645442	761.3257066	-136.9768135	-90.29304325	776.272717	-37.22329306	-79.55854656	685.5586453	-79.10633289	-98.67931324	835.4720683	-41.71858376	-125.9117197	824.7294011	-155.3841374	-144.7139416	909.927218	-165.0174344	-193.5526992	915.8591685	-50.15543807	-180.7983988	978.383874	-83.79364801	-196.8365574	1206.24041	178.8034865	575.8395558	1304.175989	95.03600439	569.8695335	1246.237759	161.7547942	461.8175406	1279.188752	144.5366564	318.7704532	1280.096273	15.87918741	320.0491717	1286.668771	162.4477689	295.0571778	1353.294592	100.5194763	261.7255637	1286.808277	174.5177999	243.147027	1435.476499	136.4325857	-74.99846054	1429.959234	34.31683281	-49.15692802	1363.484266	76.11439987	-120.4305211	1535.437687	48.15109198	-59.03939871	1516.999607	152.6198727	-65.30981375	1588.366534	163.716336	-67.04457435	1605.464492	55.50675189	-61.25254662	1654.520429	82.30973808	-43.64104027
	116	1.08333	1111.177221	-0.001002095	1241.120536	1026.889538	-161.9453511	1295.307669	1029.636373	165.1979949	1295.44256	1096.380015	-10.08809499	1532.924114	1177.571848	-117.7896216	851.4313888	1182.490683	119.399185	843.5066571	1002.191968	-5.611229398	871.7899572	1086.216796	-173.4115572	517.5654205	1133.118248	-67.95180237	437.1621621	1044.973806	-162.9734513	389.7466344	981.0842637	-142.5943975	307.261657	975.0704093	-8.355853302	289.6936073	932.4262061	-154.6508593	291.0826123	989.078533	-93.81404015	217.9220302	904.7783485	-165.0122006	198.269647	761.5446967	-136.9768135	-86.67872871	776.6807766	-37.22329306	-76.21251521	685.6223853	-79.10633289	-93.43692561	834.9240139	-41.71858376	-123.8451817	823.7846806	-155.3841374	-142.4151494	907.9266775	-165.0174344	-193.0512691	914.1280077	-50.15543807	-180.4257506	976.2982096	-83.79364801	-197.787413	1215.153463	178.8034865	574.5306521	1313.05998	95.03600439	568.1016046	1254.615874	161.7547942	460.3223948	1286.895945	144.5366564	317.1224154	1287.80945	15.87918741	318.3968657	1294.822133	162.4477689	293.6811757	1361.581739	100.5194763	260.6183319	1295.170835	174.5177999	241.7720086	1445.119964	136.4325857	-75.771768	1439.498604	34.31683281	-49.9526797	1373.100052	76.11439987	-121.1510807	1545.11251	48.15109198	-59.92556605	1526.668401	152.6198727	-66.17822359	1598.033624	163.716336	-67.98170479	1615.137151	55.50675189	-62.2061439	1664.210024	82.30973808	-44.64188319
	117	1.09167	1120.720559	-0.001002095	1240.59654	1036.34002	-161.9453511	1294.638963	1039.08662	165.1979949	1294.778568	1105.422667	-10.08809499	1532.374298	1187.642557	-117.7896216	850.7278561	1192.553315	119.399185	842.7981169	1012.28351	-5.611229398	871.2650988	1095.131535	-173.4115572	516.9517693	1141.688204	-67.95180237	436.3483779	1053.341497	-162.9734513	389.3107918	989.0992733	-142.5943975	307.1001983	983.0102332	-8.355853302	289.558066	939.8703819	-154.6508593	291.771975	995.1642409	-93.81404015	217.5793467	910.5160601	-165.0122006	199.48452	762.0532498	-136.9768135	-82.77466901	777.3797193	-37.22329306	-72.58929362	686.0016574	-79.10633289	-87.70903258	834.5428333	-41.71858376	-121.6377431	822.9676853	-155.3841374	-139.9392293	905.8893203	-165.0174344	-192.5500145	912.3873395	-50.15543807	-180.0746003	974.1298056	-83.79364801	-198.9008907	1224.174876	178.8034865	573.2730491	1322.048122	95.03600439	566.3559284	1263.067364	161.7547942	458.8694554	1294.633052	144.5366564	315.5103103	1295.5529	15.87918741	316.7801901	1302.793875	162.4477689	292.2242808	1369.570041	100.5194763	259.1948955	1303.168589	174.5177999	240.315295	1453.276827	136.4325857	-77.15329962	1447.642528	34.31683281	-51.33703152	1381.058266	76.11439987	-122.2061675	1553.360733	48.15109198	-61.80162144	1534.887016	152.6198727	-67.96625382	1606.242828	163.716336	-70.11003246	1623.373703	55.50675189	-64.41609849	1672.529776	82.30973808	-47.08605034
